<svg width="264" height="42" viewBox="0 0 264 42" fill="none" xmlns="http://www.w3.org/2000/svg">
<path d="M3.44636 40L24 4.03113L44.5536 40H3.44636Z" stroke="#1A1A1A" stroke-width="4"/>
<path d="M219.446 40L240 4.03113L260.554 40H219.446Z" stroke="#1A1A1A" stroke-width="4"/>
<path fill-rule="evenodd" clip-rule="evenodd" d="M56 39.16L95.16 0L98 2.84003L58.84 42L56 39.16Z" fill="#1A1A1A"/>
<path fill-rule="evenodd" clip-rule="evenodd" d="M58.84 0L98 39.16L95.16 42L56 2.84003L58.84 0Z" fill="#1A1A1A"/>
<mask id="path-5-inside-1" fill="white">
<path fill-rule="evenodd" clip-rule="evenodd" d="M164 0L188 42H183.429L168 15L168 42H164V0H164Z"/>
</mask>
<path fill-rule="evenodd" clip-rule="evenodd" d="M164 0L188 42H183.429L168 15L168 42H164V0H164Z" fill="#1A1A1A"/>
<path d="M188 42V46H194.893L191.473 40.0154L188 42ZM164 0L167.473 -1.98456L166.321 -4H164V0ZM183.429 42L179.956 43.9846L181.107 46H183.429V42ZM168 15L171.473 13.0154L164 -0.0622548L164 15H168ZM168 42V46H172L172 42H168ZM164 42H160V46H164V42ZM164 0V-4H160V0H164ZM191.473 40.0154L167.473 -1.98456L160.527 1.98456L184.527 43.9846L191.473 40.0154ZM183.429 46H188V38H183.429V46ZM164.527 16.9846L179.956 43.9846L186.902 40.0154L171.473 13.0154L164.527 16.9846ZM172 42L172 15H164L164 42H172ZM164 46H168V38H164V46ZM160 0V42H168V0H160ZM164 -4H164V4H164V-4Z" fill="#1A1A1A" mask="url(#path-5-inside-1)"/>
<mask id="path-7-inside-2" fill="white">
<path fill-rule="evenodd" clip-rule="evenodd" d="M207.5 0L183.5 42H188.071L203.5 15L203.5 42H207.5V0H207.5Z"/>
</mask>
<path fill-rule="evenodd" clip-rule="evenodd" d="M207.5 0L183.5 42H188.071L203.5 15L203.5 42H207.5V0H207.5Z" fill="#1A1A1A"/>
<path d="M183.5 42V46H176.607L180.027 40.0154L183.5 42ZM207.5 0L204.027 -1.98456L205.179 -4H207.5V0ZM188.071 42L191.544 43.9846L190.393 46H188.071V42ZM203.5 15L200.027 13.0154L207.5 -0.0622548L207.5 15H203.5ZM203.5 42V46H199.5L199.5 42H203.5ZM207.5 42H211.5V46H207.5V42ZM207.5 0V-4H211.5V0H207.5ZM180.027 40.0154L204.027 -1.98456L210.973 1.98456L186.973 43.9846L180.027 40.0154ZM188.071 46H183.5V38H188.071V46ZM206.973 16.9846L191.544 43.9846L184.598 40.0154L200.027 13.0154L206.973 16.9846ZM199.5 42L199.5 15H207.5L207.5 42H199.5ZM207.5 46H203.5V38H207.5V46ZM211.5 0V42H203.5V0H211.5ZM207.5 -4H207.5V4H207.5V-4Z" fill="#1A1A1A" mask="url(#path-7-inside-2)"/>
<path d="M111 0.976744L112 0V42H111V0.976744Z" fill="#1A1A1A"/>
<path fill-rule="evenodd" clip-rule="evenodd" d="M151 1H151V1.00014L151 1ZM150.403 1H125V40.0822L150.403 1ZM125.596 41H151V1.91713L125.596 41ZM124 0H125H151H152V1V41V42H151H125H124V41V1V0Z" fill="#1A1A1A"/>
</svg>
